<svg xmlns="http://www.w3.org/2000/svg" fill="rgba(255, 255, 255, 0.9)" viewBox="0 0 200 200"><path d="M70.89 140.11C67.57 142.69 64.16 145.11 60.81 147.69 59.88 148.39 59.16 148.32 58.16 147.41 56.313 145.743 54.553 143.99 52.88 142.15 45.525 134.055 40.479 124.131 38.27 113.42 37.75 110.933 37.37 108.419 37.13 105.89 36.95 103.95 36.857 102 36.85 100.04 36.873 93.874 37.817 87.747 39.65 81.86 40.895 77.931 42.484 74.119 44.4 70.47 44.58 70.13 44.77 69.8 44.97 69.47 45.17 69.14 45.42 69.09 45.69 69.47L50.28 75.47 65.65 95.58C68.277 99.02 70.903 102.467 73.53 105.92 73.84 106.32 73.82 106.32 73.53 106.75 73.024 107.438 72.452 108.075 71.82 108.65 69.91 110.65 68.01 112.65 66.03 114.59 65.46 115.14 64.89 115.67 64.33 116.23 63.561 116.821 63.392 117.927 63.95 118.72 65.462 121.592 67.304 124.277 69.44 126.72 71.394 128.942 73.576 130.953 75.95 132.72 76.59 133.21 77.29 133.64 77.95 134.1 78.35 134.37 78.35 134.39 77.95 134.67 75.63 136.51 73.24 138.28 70.89 140.11ZM52.57 60.61C52.307 60.304 52.162 59.913 52.162 59.508 52.162 59.007 52.385 58.531 52.77 58.21 53.77 57.21 54.71 56.12 55.77 55.12 59.684 51.249 64.072 47.889 68.83 45.12 75.023 41.556 81.792 39.102 88.83 37.87 91.3 37.442 93.79 37.138 96.29 36.96 97.67 36.85 99.06 36.87 100.01 36.8 106.309 36.766 112.575 37.7 118.59 39.57 122.385 40.76 126.066 42.286 129.59 44.13 130.11 44.4 130.64 44.7 131.16 44.98 131.387 45.102 131.529 45.339 131.529 45.597 131.529 45.825 131.417 46.039 131.23 46.17 126.85 49.33 122.44 52.43 118.02 55.54 113.6 58.65 109.43 61.68 105.14 64.76L94.57 72.34C94.382 72.477 94.185 72.601 93.98 72.71 93.325 73.134 92.44 72.971 91.98 72.34 90.66 70.92 89.27 69.57 87.87 68.22 86.63 67.01 85.42 65.78 84.19 64.55 84.01 64.355 83.813 64.178 83.6 64.02 82.982 63.663 82.218 63.663 81.6 64.02 80.434 64.618 79.305 65.286 78.22 66.02 75.981 67.462 73.897 69.131 72 71 70.145 72.821 68.443 74.791 66.91 76.89L66.11 77.89C65.88 78.19 65.84 78.19 65.62 77.89 64.72 76.71 63.82 75.53 62.9 74.36 59.45 69.93 56.14 65.36 52.8 60.89L52.57 60.61ZM148.17 140.2C148.272 140.284 148.331 140.408 148.331 140.54 148.331 140.672 148.272 140.796 148.17 140.88 146.82 142.44 145.42 143.97 143.93 145.41 140.105 149.169 135.809 152.416 131.15 155.07 124.742 158.671 117.753 161.121 110.5 162.31 108.116 162.727 105.708 162.994 103.29 163.11L100.29 163.23C95.237 163.239 90.202 162.645 85.29 161.46 81.113 160.427 77.046 158.987 73.15 157.16 71.66 156.47 70.15 155.73 68.74 154.96L68.66 154.91C68.26 154.68 68.25 154.65 68.66 154.38L82.9 143.76 97.68 132.76 105.98 126.6C106.34 126.33 106.38 126.33 106.71 126.6 108.41 128.26 110.11 129.93 111.82 131.6 113.53 133.27 114.99 134.6 116.52 136.18 116.865 136.599 117.468 136.71 117.94 136.44 118.88 136 119.76 135.44 120.66 134.95 123.877 133.084 126.81 130.768 129.37 128.07 131.04 126.312 132.55 124.408 133.88 122.38L133.97 122.25C134.26 121.87 134.44 121.87 134.72 122.25 138.613 127.45 142.5 132.647 146.38 137.84 147 138.62 147.56 139.41 148.17 140.2ZM163.14 100.41C163.14 107.544 161.908 114.625 159.5 121.34 158.57 123.907 157.492 126.418 156.27 128.86 156.02 129.36 155.68 129.81 155.41 130.28 155.252 130.547 155.112 130.825 154.99 131.11 154.89 131.35 154.79 131.36 154.63 131.11 154.06 130.35 153.48 129.6 152.89 128.85 149.003 123.79 145.14 118.713 141.3 113.62 138.24 109.567 135.173 105.517 132.1 101.47 130.58 99.47 129.03 97.47 127.5 95.47 126.57 94.25 126.62 93.56 127.69 92.47 129.34 90.8 131 89.14 132.63 87.47 133.63 86.47 134.63 85.47 135.63 84.42 136.357 83.852 136.524 82.806 136.01 82.04 134.665 79.468 133.067 77.036 131.24 74.78 128.953 71.971 126.315 69.467 123.39 67.33L121.86 66.22C121.69 66.1 121.7 65.99 121.86 65.87 122.25 65.54 122.62 65.18 123.03 64.87L135.15 55.74 139.28 52.61C139.555 52.321 139.937 52.158 140.336 52.158 140.782 52.158 141.203 52.361 141.48 52.71 145.938 56.684 149.854 61.226 153.13 66.22 157.237 72.559 160.132 79.605 161.67 87 162.283 89.889 162.707 92.816 162.94 95.76 163.06 97.27 163.17 98.84 163.14 100.41Z" transform="translate(-58.157 -58.167)scale(1.58161)"/><path d="M148.15 140.88C146.8 142.44 145.4 143.97 143.91 145.41 140.085 149.169 135.789 152.416 131.13 155.07 124.722 158.671 117.733 161.121 110.48 162.31 108.096 162.727 105.688 162.994 103.27 163.11L100.27 163.23C95.217 163.239 90.182 162.645 85.27 161.46 81.093 160.427 77.026 158.987 73.13 157.16 71.64 156.47 70.13 155.73 68.72 154.96L68.64 154.91C68.24 154.68 68.23 154.65 68.64 154.38L82.9 143.76 97.68 132.76 105.98 126.6C106.34 126.33 106.38 126.33 106.71 126.6 108.41 128.26 110.11 129.93 111.82 131.6 113.53 133.27 114.99 134.6 116.52 136.18 116.865 136.599 117.468 136.71 117.94 136.44 118.88 136 119.76 135.44 120.66 134.95 123.877 133.084 126.81 130.768 129.37 128.07 131.04 126.312 132.55 124.408 133.88 122.38L133.97 122.25C134.26 121.87 134.44 121.87 134.72 122.25 138.613 127.45 142.5 132.647 146.38 137.84 146.97 138.64 147.56 139.43 148.17 140.22 148.259 140.303 148.309 140.42 148.309 140.541 148.309 140.672 148.251 140.796 148.15 140.88ZM78 134.71C75.62 136.51 73.23 138.28 70.88 140.11 67.56 142.69 64.15 145.11 60.8 147.69 59.87 148.39 59.15 148.32 58.15 147.41 56.303 145.743 54.543 143.99 52.87 142.15 45.515 134.055 40.469 124.131 38.26 113.42 37.74 110.933 37.36 108.419 37.12 105.89 36.94 103.95 36.847 102 36.84 100.04 36.863 93.874 37.807 87.747 39.64 81.86 40.888 77.931 42.481 74.119 44.4 70.47 44.58 70.13 44.77 69.8 44.97 69.47 45.17 69.14 45.42 69.09 45.69 69.47L50.28 75.47 65.65 95.58C68.277 99.02 70.903 102.467 73.53 105.92 73.84 106.32 73.82 106.32 73.53 106.75 73.024 107.438 72.452 108.075 71.82 108.65 69.91 110.65 68.01 112.65 66.03 114.59 65.46 115.14 64.89 115.67 64.33 116.23 63.561 116.821 63.392 117.927 63.95 118.72 65.462 121.592 67.304 124.277 69.44 126.72 71.394 128.942 73.576 130.953 75.95 132.72 76.59 133.21 77.29 133.64 77.95 134.1 78.38 134.41 78.38 134.43 78 134.71ZM131.2 46.14C126.82 49.3 122.41 52.4 117.99 55.51 113.57 58.62 109.4 61.65 105.11 64.73L94.57 72.34C94.382 72.477 94.185 72.601 93.98 72.71 93.325 73.134 92.44 72.971 91.98 72.34 90.66 70.92 89.27 69.57 87.87 68.22 86.63 67.01 85.42 65.78 84.19 64.55 84.01 64.355 83.813 64.178 83.6 64.02 82.982 63.663 82.218 63.663 81.6 64.02 80.434 64.618 79.305 65.286 78.22 66.02 75.981 67.462 73.897 69.131 72 71 70.145 72.821 68.443 74.791 66.91 76.89L66.11 77.89C65.88 78.19 65.84 78.19 65.62 77.89 64.72 76.71 63.82 75.53 62.9 74.36 59.45 69.93 56.14 65.36 52.8 60.89L52.6 60.6C52.337 60.294 52.192 59.903 52.192 59.498 52.192 58.997 52.415 58.521 52.8 58.2 53.8 57.2 54.74 56.11 55.8 55.11 59.714 51.239 64.102 47.879 68.86 45.11 75.053 41.546 81.822 39.092 88.86 37.86 91.33 37.432 93.82 37.128 96.32 36.95 97.7 36.84 99.09 36.86 100.04 36.79 106.339 36.756 112.605 37.69 118.62 39.56 122.415 40.75 126.096 42.276 129.62 44.12 130.14 44.39 130.67 44.69 131.19 44.97 131.39 45.099 131.511 45.321 131.511 45.558 131.511 45.792 131.394 46.01 131.2 46.14ZM163.14 100.41C163.14 107.544 161.908 114.625 159.5 121.34 158.57 123.907 157.492 126.418 156.27 128.86 156.02 129.36 155.68 129.81 155.41 130.28 155.252 130.547 155.112 130.825 154.99 131.11 154.89 131.35 154.79 131.36 154.63 131.11 154.06 130.35 153.48 129.6 152.89 128.85 149.003 123.79 145.14 118.713 141.3 113.62 138.24 109.567 135.173 105.517 132.1 101.47 130.58 99.47 129.03 97.47 127.5 95.47 126.57 94.25 126.62 93.56 127.69 92.47 129.34 90.8 131 89.14 132.63 87.47 133.63 86.47 134.63 85.47 135.63 84.42 136.357 83.852 136.524 82.806 136.01 82.04 134.665 79.468 133.067 77.036 131.24 74.78 128.953 71.971 126.315 69.467 123.39 67.33L121.86 66.22C121.69 66.1 121.7 65.99 121.86 65.87 122.25 65.54 122.62 65.18 123.03 64.87L135.15 55.74 139.28 52.61C139.555 52.321 139.937 52.158 140.336 52.158 140.782 52.158 141.203 52.361 141.48 52.71 145.938 56.684 149.854 61.226 153.13 66.22 157.237 72.559 160.132 79.605 161.67 87 162.283 89.889 162.707 92.816 162.94 95.76 163.06 97.27 163.17 98.84 163.14 100.41Z" transform="translate(-58.157 -58.167)scale(1.58161)"/></svg>