<svg xmlns="http://www.w3.org/2000/svg" fill="rgba(255, 255, 255, 0.9)" viewBox="0 0 1080 1080"><path d="M0,230L0,222C1.097,216.312 1.96,210.568 3.333,204.948C9.05,181.536 26.345,165.819 48.577,165.095C56.461,164.839 64.436,167.394 73.352,168.823C72.467,169.562 72.831,169.404 72.944,169.139C73.598,167.611 74.185,166.053 74.808,164.511C99.282,103.992 140.351,59.902 201.843,35.911C204.066,35.044 206.172,32.933 207.499,30.867C216.541,16.79 228.087,6.046 244.796,1.942C248.154,1.119 251.597,0.639 255,0L256,0C257.841,7.59 259.575,15.209 261.615,22.744C262.011,24.21 263.404,26.209 264.669,26.496C269.547,27.601 274.269,27.851 278.986,24.71C287.126,19.291 295.713,14.542 305.752,8.53C305.752,13.85 306.098,17.764 305.684,21.595C304.684,30.833 307.963,35.435 317.268,39.346C375.012,63.617 413.698,106.672 436.913,164.284C437.699,166.237 438.475,168.195 439.331,170.343C440.944,169.776 442.04,169.451 443.089,169.012C463.361,160.495 484.777,166.02 498.09,183.376C506.934,194.904 510.334,208.27 511.134,222.563C512.892,253.962 494.402,285.657 466.464,298.769C459.271,302.145 459.261,302.147 460.601,310.227C464.033,330.913 463.115,351.395 457.214,371.525C445.084,412.906 418.762,443.404 382.933,466.005C333.216,497.365 278.54,506.48 220.929,499.298C186.253,494.975 153.677,483.568 124.903,463.471C69.872,425.035 40.337,374.435 52.217,305.093C52.697,302.289 51.527,301.471 49.205,300.449C25.428,289.984 10.309,271.927 3.312,247.061C1.747,241.505 1.08,235.694 0,230ZM408.33,242.06C408.33,235.313 406.238,225.353 401.708,215.207C381.9,170.85 326.449,152.822 282.072,176.568C264.623,185.905 247.782,185.715 230.129,176.757C198.178,160.544 166.925,161.763 137.311,182.917C103.864,206.809 94.16,250.666 115.076,285.917C124.707,302.149 126.845,318.391 120.301,336.064C113.609,354.135 113.189,372.543 118.535,391.06C129.64,429.524 155.978,454.507 190.966,471.084C215.35,482.638 241.471,486.459 268.405,484.303C303.032,481.53 334.327,470.054 359.62,445.91C391.905,415.092 406.688,378.493 391.487,333.876C385.831,317.272 387.696,301.883 396.977,287.057C404.658,274.789 408.467,261.277 408.33,242.06ZM448.807,240.891C450.09,250.247 452.428,267.013 454.661,283.791C455.181,287.695 457.198,288.362 460.05,286.334C466.112,282.022 472.678,278.117 477.806,272.849C497.298,252.818 501.273,221.166 487.754,198.593C479.295,184.468 463.223,177.282 448.201,180.515C443.868,181.447 442.955,183.156 444.052,187.336C448,202.388 449.545,217.747 448.807,240.891ZM55.62,287.274C56.279,285.057 57.037,283.387 57.25,281.65C58.935,267.962 61.436,254.291 61.9,240.554C62.503,222.713 62.815,204.923 67.335,187.56C68.508,183.053 67.005,181.695 62.957,180.857C46.029,177.353 28.735,187.491 21.362,205.452C9.539,234.256 21.966,269.46 49.303,284.488C51.149,285.502 53.167,286.202 55.62,287.274Z" transform="translate(0 10.18)scale(2.11247)"/><path d="M302.496 437.87C300.801 434.894 299.706 432.441 298.144 430.333 294.39 425.264 289.03 423.225 282.899 423.162 274.105 423.072 265.311 423.137 256.517 423.137 247.39 423.137 238.261 423.03 229.136 423.172 221.375 423.293 215.3 426.438 211.817 433.727 211.253 434.908 210.562 436.027 209.801 437.409 208.903 437.053 208.086 436.889 207.456 436.455 191.274 425.28 180.537 410.376 176.509 390.945 174.735 382.387 177.813 378.505 186.506 378.497 232.833 378.457 279.16 378.458 325.487 378.497 334.197 378.505 337.282 382.374 335.505 390.924 331.312 411.088 319.998 426.248 302.496 437.87ZM352.706 251.983C354.871 269.997 338.408 281.789 322.563 277.977 313.142 275.71 305.661 268.348 304.878 258.707 304.378 252.537 304.44 245.866 306.275 240.061 309.688 229.27 321.932 223.422 333.408 225.752 345.136 228.134 352.633 237.162 352.701 248.987 352.707 249.986 352.703 250.985 352.706 251.983ZM328.986 232.573C324.181 232.525 320.413 235.832 320.231 240.256 320.043 244.848 323.903 248.485 328.945 248.464 333.424 248.446 336.959 245.127 337.111 240.796 337.271 236.289 333.645 232.619 328.986 232.573ZM159.18 251.245C158.573 241.234 162.337 232.973 171.82 228.126 180.885 223.493 189.919 224.218 198.222 230.165 207.759 236.996 211.033 253.471 205.442 265.22 200.582 275.433 188.993 280.664 177.274 277.936 165.47 275.187 159.176 266.051 159.18 251.245ZM191.976 240.457C191.939 236.022 188.071 232.434 183.453 232.552 178.645 232.675 174.994 236.152 175.025 240.576 175.057 245.014 178.718 248.394 183.567 248.464 188.176 248.53 192.012 244.877 191.976 240.457ZM226.627 313.215C234.22 317.038 241.194 320.13 247.606 324.122 248.947 324.957 249.323 329.921 248.151 331.535 246.792 333.409 242.802 335.058 240.714 334.399 234.747 332.514 228.901 329.837 223.575 326.551 221.745 325.422 220.54 321.38 220.982 319.031 221.377 316.934 224.433 315.336 226.627 313.215ZM268.764 336.298C266.467 333.889 263.612 332.226 263.189 330.082 262.751 327.867 263.953 323.976 265.701 322.931 271.22 319.632 277.191 316.901 283.294 314.876 285.239 314.23 289.157 315.814 290.326 317.593 291.495 319.373 291.342 324.237 290.065 325.037 283.555 329.127 276.492 332.339 268.764 336.298Z" transform="translate(0 10.18)scale(2.11247)"/></svg>