<svg version="1.2" xmlns="http://www.w3.org/2000/svg" viewBox="0 0 500 500" width="500" height="500"><defs><linearGradient id="P" gradientUnits="userSpaceOnUse"/><linearGradient id="g1" x2="1" href="#P" gradientTransform="matrix(436.504,-321.638,79.38,107.728,32.682,408.306)"><stop stop-color="#fff"/><stop offset=".5" stop-color="#ccc"/><stop offset=".52" stop-color="#cecece"/><stop offset="1" stop-color="#fff"/></linearGradient></defs><style>.a{fill:url(#g1)}.b{fill:#fff}</style><path class="a" d="m499.9 49.4c-96-0.4-189.9 41.3-254.1 112.4-23.1 23.9-38.5 53.2-57 80.3-44.4 60.7-113.7 95.8-188.8 95.8v109.3c96 0.3 189.8-41.4 254.1-112.5 23-23.9 38.6-53.2 57.1-80.3 44.3-60.7 113.6-95.8 188.7-95.8z"/><path class="b" d="m499.9 337.9c-75 0-144.4-35.1-188.7-95.8-18.4-27.1-34.1-56.3-57-80.3-64.1-71.1-158.1-112.8-254.1-112.4v109.3c83.1-0.4 160.3 44.3 202.1 116.2 12.3 21.4 27 41.5 43.7 60 64.2 71 158.1 112.8 254.1 112.5l-0.1-109.5z"/></svg>