<svg version="1.2" xmlns="http://www.w3.org/2000/svg" viewBox="0 0 618 618" width="618" height="618"><style>.a{fill:#fff}</style><path fill-rule="evenodd" class="a" d="m64.4 585.3h35.8v22.7h-35.8zm447.3-156.7c0 30.2-14.6 52.9-36.1 64.3-21.5 11.4-51.8 17.9-103.2 17.9h-312.5v-14.9h311c47.4 0 79.3-7.6 95-16.2 17.2-9.4 28.9-32.2 28.9-51.2 0-29.7-20-45.4-35.2-54.4-7.7-4.6-33.3-16.1-100.8-16.1h-118.6v-14.9h121.4c76.1 0 92.2 7.5 110.7 18.6 19.7 11.9 39.4 33.1 39.4 66.9zm-12.9-135c39.4 32.5 59.2 77.4 59.3 134.9 0 57.2-20.4 101.5-61.2 133.1-40.8 31.6-97.5 47.4-170.2 47.4h-195.2v-23.8h193.9c60.2 0 120.4-12.3 154.1-40.2 17.4-13.9 31.4-31.6 40.9-51.7 9.5-20.2 14.3-42.2 14-64.5 0 41.5-17.8 73.7-51.2 98.5-35.6 26.4-76.8 31.7-138.4 31.7h-73.6v-23.7h98.5c18.7 0 64.6-0.6 94.7-22.8 29.4-21.7 47.5-48 47.5-84 0-37.3-17.8-63.2-47.1-84.9-22.9-16.9-47.8-25.3-115.7-25.3h-177.3v-23.4h180.2c79.6 0 107.8 15 132.4 33.6 16.3 12.3 35.1 30.2 44.2 59.8-8.9-30.9-26.7-58.5-51.2-79.3-32.4-28-85.5-40.1-144.2-40.1h-111.8v-24h115c26.2-0.2 52.4 2.6 78 8.4 6.1-1.9 12-4.4 17.6-7.5 17.2-9.7 28.8-33.4 28.8-53.1 0-30.9-20-47-35.2-56.3-7.8-4.7-33.3-16.7-100.8-16.7h-92.6v-15.6h95.3c74.7 0 92.2 7.8 110.6 19.3 19.7 12.3 39.7 34.1 39.7 69.1 0 32.1-14.9 54.8-36.4 66.7l-2.2 1.2c2.4 0.8 4.7 1.7 7 2.6 19.9-18.7 31.7-36.7 31.7-70.4 0-37.3-18.1-63.2-47.4-84.9-22.8-16.9-47.8-25.3-115.7-25.3h-129.6v-23.4h132.6c79.6 0 108.8 13.9 132.3 33.6 13.4 11.2 35 30.2 44.2 59.8-9-32.4-20.3-54.1-51.2-79.3-33.2-27-85.5-40.1-144.2-40.1h-168.8v-24h171.9c69.1 0 123.3 16.2 162.6 48.8 39.4 32.6 59.1 77.5 59.1 134.9 0 38.6-9.3 71.5-28.1 98.5 0.8 0.6 2.4 1.8 3.2 2.4zm-345-138.2h224.6v12.6h-224.6zm78.1 50.9h-135.6v-12.6h135.6zm-94.4-98.4h59.2v10.8h-59.2zm105.5 433.5v15.7h-143v-15.7zm-143-99.8h152v13.1h-152zm81.3-33.7h-50v-13.1h50zm98.5 34.6h98.3v11.2h-98.3zm99.3-34.6h-169v-13.1h169zm89.4-134.2c2.1 1.1 4.2 2.3 6.3 3.5 16.3-24.1 25-52.5 25.1-81.5-0.1 29-11.3 56.9-31.4 78zm-94.4-67.4h-108v-12.6h108zm125.8-13.6q0 1.5 0 3 0-1.5 0-3z"/></svg>