<svg xmlns="http://www.w3.org/2000/svg" fill="rgba(255, 255, 255, 0.9)" viewBox="0 0 200 200"><path d="M53.65 112.37C53.434 110.858 52.843 109.424 51.93 108.2 51.066 107.097 49.974 106.193 48.73 105.55 48.64 105.55 48.5 105.49 48.49 105.35 48.48 105.21 48.59 105.25 48.65 105.22 49.429 104.771 50.134 104.204 50.74 103.54 52.252 101.945 53.137 99.856 53.23 97.66 53.31 96.241 53.137 94.819 52.72 93.46 51.924 90.654 49.896 88.357 47.21 87.22 45.233 86.364 43.094 85.948 40.94 86L25.56 86C24.97 86 24.97 86 24.97 86.57L24.97 125.19C24.97 125.77 24.97 125.78 25.53 125.77 31.11 125.77 36.7 125.85 42.28 125.71 44.017 125.69 45.736 125.351 47.35 124.71 49.923 123.709 51.958 121.667 52.95 119.09 53.781 116.953 54.023 114.632 53.65 112.37ZM32.76 97.51 32.76 93.4C32.76 93.06 32.87 92.96 33.2 92.97L40.85 92.97C42.08 92.958 43.27 93.412 44.18 94.24 44.889 94.901 45.328 95.804 45.41 96.77 45.606 97.971 45.334 99.203 44.65 100.21 43.854 101.297 42.597 101.956 41.25 101.99 38.55 102.18 35.84 101.99 33.14 102.07 32.85 102.07 32.76 101.97 32.76 101.69 32.77 100.31 32.76 98.91 32.76 97.51ZM45.51 116.23C44.841 117.599 43.514 118.533 42 118.7 41.542 118.758 41.081 118.782 40.62 118.77L33.3 118.77C32.77 118.77 32.76 118.77 32.76 118.23L32.76 109.52C32.76 109.17 32.87 109.07 33.21 109.07L41.21 109.07C42.374 109.049 43.509 109.442 44.41 110.18 45.284 110.879 45.855 111.89 46 113 46.182 114.101 46.01 115.232 45.51 116.23ZM123.36 112.55C123.126 110.681 122.311 108.931 121.03 107.55 120.264 106.728 119.356 106.05 118.35 105.55 118.14 105.44 118.09 105.37 118.35 105.23 119.227 104.726 120.011 104.077 120.67 103.31 121.659 102.164 122.346 100.789 122.67 99.31 123.015 97.659 122.991 95.951 122.6 94.31 122.038 91.361 120.127 88.839 117.44 87.5 115.371 86.467 113.082 85.952 110.77 86L95.25 86C94.71 86 94.71 86 94.71 86.54L94.71 125.3C94.71 125.59 94.71 125.78 95.1 125.78 100.73 125.78 106.37 125.85 112 125.71 113.545 125.685 115.076 125.405 116.53 124.88 119.498 123.896 121.831 121.56 122.81 118.59 123.473 116.65 123.662 114.578 123.36 112.55ZM102.87 93 110.66 93C112.428 92.904 114.075 93.937 114.76 95.57 115.71 97.85 115.06 101.04 111.82 101.86 111.221 102.008 110.607 102.081 109.99 102.08L102.92 102.08C102.44 102.08 102.44 102.08 102.44 101.6L102.44 93.41C102.43 93.07 102.53 93 102.87 93ZM114.55 117.25C113.826 118.044 112.852 118.567 111.79 118.73 111.493 118.786 111.192 118.813 110.89 118.81L102.89 118.81C102.53 118.81 102.4 118.72 102.41 118.34L102.41 109.57C102.41 109.23 102.49 109.1 102.85 109.1L111.01 109.1C111.058 109.099 111.105 109.098 111.153 109.098 113.638 109.098 115.683 111.143 115.683 113.628 115.683 113.679 115.682 113.729 115.68 113.78 115.758 115.026 115.353 116.255 114.55 117.21L114.55 117.25ZM89.18 86.4 84.47 95.66C83.27 98.03 82.06 100.39 80.85 102.76 79.77 104.87 78.7 106.98 77.61 109.08 77.489 109.318 77.431 109.583 77.44 109.85L77.44 125.22C77.44 125.76 77.44 125.76 76.9 125.76L70.19 125.76C69.71 125.76 69.71 125.76 69.71 125.27L69.71 109.93C69.717 109.603 69.641 109.28 69.49 108.99 68 106.08 66.49 103.15 65.03 100.23L61.29 92.9C60.19 90.76 59.093 88.62 58 86.48 57.76 86 57.77 85.99 58.31 85.99L65.71 85.99C66.021 85.947 66.32 86.139 66.41 86.44 67.23 88.26 68.08 90.05 68.92 91.86 70.387 95.027 71.853 98.2 73.32 101.38 73.391 101.581 73.503 101.765 73.65 101.92L74.65 99.8 77.11 94.4C78.33 91.72 79.56 89.04 80.78 86.4 80.85 86.167 81.078 86.015 81.32 86.04L88.94 86.04C89.34 86 89.36 86 89.18 86.4ZM175 92.53C175 92.88 174.88 92.98 174.54 92.97L165.36 92.97C164.56 92.97 164.65 92.9 164.65 93.7L164.65 125.21C164.65 125.76 164.65 125.76 164.12 125.76L157.49 125.76C156.86 125.76 156.86 125.76 156.86 125.14L156.86 93.27C156.86 93.05 156.76 92.96 156.55 92.97L147.04 92.97C146.52 92.97 146.51 92.97 146.51 92.44L146.51 86.44C146.51 85.99 146.51 85.97 146.98 85.97L174.56 85.97C174.92 85.97 175.01 86.09 175.01 86.43 175.003 88.47 175 90.503 175 92.53ZM139.7 113.52C139.7 113.87 139.61 113.96 139.26 113.96L132.26 113.96C131.98 113.96 131.89 113.96 131.89 113.61L131.89 74.61C131.89 74.32 131.97 74.25 132.26 74.25L139.26 74.25C139.58 74.25 139.63 74.35 139.63 74.64L139.63 94.11C139.67 100.583 139.693 107.053 139.7 113.52Z" transform="translate(-33.308 -33.319)scale(1.33311)"/></svg>