<svg version="1.2" xmlns="http://www.w3.org/2000/svg" viewBox="0 0 800 800" width="800" height="800"><style>.a{fill:#fff}</style><path class="a" d="m392.9 413.1c0.1 45.1-31.9 83.9-76.2 92.2-44.4 8.4-88.4-16-104.7-57.9l35.7-35.9v1.6c0 24.5 17.2 45.7 41.4 50.4 24.1 4.8 48.2-8.1 57.5-30.8 9.4-22.7 1.6-48.9-18.9-62.6-20.5-13.6-47.7-11-65 6.5l-102.7 102.7c-26.8 26.9-67.2 34.8-102.2 20.3-34.9-14.5-57.8-48.6-57.8-86.7 0-38 22.9-72 57.8-86.7 35-14.6 75.4-6.4 102.2 20.4 5.3 5.3 7.4 13.1 5.3 20.3-2 7.3-7.7 13-15.1 14.8-7.2 2-15-0.3-20.3-5.6-20.2-20-52.8-20-72.9 0.2-20.1 20-20.1 52.8 0 72.9 20.1 20 52.7 20.2 72.9 0.1l102.9-102.3c26.7-26.9 67-34.8 102.1-20.3 35 14.5 57.9 48.6 57.9 86.5v-0.1zm407.1 0c0 45-32.1 83.7-76.4 92.1-44.3 8.4-88.2-15.9-104.7-57.8l35.7-35.9v1.6c0 24.5 17.3 45.7 41.4 50.4 24.1 4.8 48.2-8.1 57.5-30.8 9.4-22.7 1.6-48.9-18.9-62.6-20.5-13.6-47.7-11-65 6.5l-102.3 102.3c-26.7 27.1-67.1 35.4-102.3 20.9-35.2-14.5-58.1-48.8-58.1-86.9v-131.5c-0.5-7.8 3.4-15.4 10.2-19.4 6.8-4 15.2-4 21.9 0 6.7 4 10.6 11.6 10.2 19.4v53.3c25.9-17.1 58.6-20.2 87.3-8.3 28.8 11.8 49.7 37.2 56.1 67.7l47.4-47.4c26.7-26.7 67.1-34.8 102.1-20.3 35 14.6 57.9 48.8 57.9 86.7zm-247.7 0c0-28.5-23.1-51.6-51.6-51.6-28.4 0-51.5 23.1-51.5 51.6 0 28.4 23.1 51.5 51.5 51.5 13.7 0 26.8-5.4 36.5-15 9.7-9.6 15.1-22.7 15.1-36.5z"/></svg>