<svg version="1.2" xmlns="http://www.w3.org/2000/svg" viewBox="0 0 2462 2503" width="2462" height="2503"><style>.a{fill:#fff}.b{fill:#fdfdfd}</style><path class="a" d="m422.1 2188.2c-39.3-36.6-81.9-70.3-117.3-110.4-76.7-87.1-142-182.6-190.3-288.5-15.4-33.7-25.3-69.8-37.7-104.8 256.2-4.4 493 59.4 708.5 198.9 11 7.1 21.1 15.7 31.5 23.6-14.4 14.6-27 31.8-43.6 43.5-75 52.7-151 104.1-227 155.6-41.1 27.8-82.7 54.7-124.1 82.1z"/><path class="a" d="m1268.1 2487c-7.2 2.1-14.4 5.9-21.5 5.9-145.6-0.1-287.8-22-424.8-71.1-55.6-19.9-108-48.8-161.8-73.7 7.7-8.8 13.8-20 23.3-26.1 47-30.6 95.8-58.7 142.4-89.9 52.7-35.3 104.1-72.7 155.5-109.8 14.6-10.5 27.6-23.2 41.3-34.9 91.2 92.1 156.5 201.2 210.8 317.5 12.5 27 23.3 54.7 34.8 82.1z"/><path class="a" d="m1022.4 2087.4c-13.7 11.7-26.7 24.4-41.2 34.9-51.5 37.1-102.8 74.5-155.6 109.8-46.6 31.2-95.3 59.3-142.4 89.9-9.5 6.1-15.6 17.3-23.3 26.1-56.8-34.3-114.3-67.6-170-103.7-24.5-15.8-45.3-37.3-67.8-56.2 41.3-27.4 83-54.3 124-82.1 76-51.5 152-102.9 227.1-155.6 16.5-11.7 29.2-28.9 43.6-43.5 68.5 60.1 137 120.3 205.6 180.4z"/><path class="b" d="m1808 2015.2c-65.6 5.5-92.4 43.6-99.9 103.8-7.5-59.5-35.9-97.8-99.5-105.5 64.9-6.6 92.1-46 99.7-105.8 5.6 62.3 35.7 98.9 99.7 107.5zm-1366.9-589.8c57.9-6.7 93.2-35.6 103.9-94.8 8.4 60.2 44.8 87.1 101.4 94.6-57.3 6.6-92.4 34.3-101.4 93.9-11.8-58.4-45.1-88.9-103.9-93.7z"/><path class="a" d="m1252.5 796.5c73-131.3 143.1-264.2 219.9-393.2 57.6-96.5 136.1-176.2 227.6-242.6 6.4-4.6 8.6-15.2 12.8-22.9 17.6-7.7 35.1-15.7 53-22.9 10.9-4.3 22.4-7.4 33.6-11 17.6 22.6 33.5 46.7 53 67.6 75.4 81.3 167.9 130.5 279.1 142.8l-5.2 55.2c-23 17.5-44.9 36.6-69.3 52-37.6 23.8-76.8 45-115.4 67.3-29.5-90.5-92.9-142.5-179-146.9-82.3-4.2-154 40-187.6 115.9-34.6 78-14.3 156.7 59.1 230.2-11.1 12.6-20.2 27.8-33.6 37.2-48.3 34.2-98 66.7-147.4 99.4-79.5 52.7-158.9 105.6-239.1 157.1-8.4 5.3-22.5 1.6-33.9 2.1 2.9-9.4 5.2-19 8.9-28.2 21-53.1 42.3-106 63.5-159.1z"/><path class="a" d="m1941.6 488.8c38.6-22.3 77.8-43.5 115.4-67.3 24.3-15.4 46.3-34.5 69.3-52 0.1 19.4 0.3 38.7 0.5 58.1-4.7 5.3-11.5 10-13.9 16.2-22.2 59.3-43.6 118.8-65.2 178.3-12.8 3-27.5 2.9-38.1 9.5-62.5 38.4-124.4 77.7-185.7 117.9-56.7 37.2-112.7 75.7-168.8 113.8-60.7 41.3-121.3 82.8-181.9 124.2-33.3-8-55.4 12.5-75.1 32.7-42 43.3-81.7 88.8-124.2 135.5-41.8-27.7-84-55.6-126.1-83.5l5.8-25 26.5-63.5c11.4-0.5 25.6 3.2 33.9-2.1 80.2-51.5 159.6-104.4 239.1-157.1 49.4-32.7 99.1-65.2 147.4-99.4 13.4-9.4 22.6-24.7 33.6-37.3 39.1 12.8 77.8 34.6 117.5 36.5 117.4 5.8 216.1-103.1 190-235.6z"/><path class="a" d="m2131.5 314.3c-111.2-12.3-203.7-61.6-279.1-142.8-19.5-20.9-35.4-45-53-67.6 74.6-44.7 155.1-65.2 242-59.3 31.2 2.2 44.5 25.5 55 50.4 29.6 70.2 36.5 144.1 35.1 219.3z"/><path class="a" d="m1473.2 987.6c60.6-41.4 121.2-83 181.9-124.2 56.1-38.2 112.1-76.7 168.8-113.8 61.4-40.2 123.3-79.6 185.7-118 10.6-6.5 25.3-6.5 38.1-9.4-43.1 71.5-81.8 146.4-130.4 213.9-64.4 89.4-136.5 173.1-205.4 259.2-19 19.8-38 39.7-57.2 59.4-43.8 45.1-87.6 90.1-131.4 135.1-5.8 4.7-11.6 9.4-17.3 14.1l-114.5-71.1c22.2-46.3 46.8-88.4 62.4-133.6 12.2-35.2 13.3-74.3 19.3-111.6z"/><path class="a" d="m1523.3 1289.8c43.8-45 87.7-90 131.5-135.1 19.1-19.7 38.1-39.6 57.2-59.4 38.6 32.5 40.6 78.9 45.6 123.5 2.5 21.7 0.4 43.9 0.3 65.8-15.7 148.2-108 256.8-192.6 369.2-15.2 20.2-30.8 41.7-50.9 56-11.9 8.5-36.8 11.2-49.2 4.4-30.3-16.9-44.8-81.1-28.3-112.5 24.5-46.8 45.3-97.3 78.1-137.7 47.9-59.2 36.2-114.8 8.3-174.2z"/><path class="a" d="m1473.2 987.6c-6 37.3-7.1 76.4-19.3 111.6-15.6 45.2-40.2 87.3-62.4 133.6l114.5 71.1c18.6 21.6 18.5 43.3 1 65.8-7.3 9.5-12.4 20.8-19.3 30.7-30.7 44.7-36 46.3-86.8 27.1-30.8-20.9-61.7-41.8-90.4-61.3-38.9 43.4-74.4 83.8-111 123.3-11.2 12-23.9 23.9-38.3 31.2-14.5 7.5-31.9 9.1-48.1 13.3-2.7-17.7-12.2-37.9-6.9-52.7 20.7-56.7 46.1-111.7 69.9-167.3 3-6.9 7.3-13.4 13.3-24.2-31.6-21.1-63.1-42.2-94.6-63.3-9.9-6.9-19.8-13.8-29.6-21-20.5-14.8-23.5-34.7-12-55.2 12.9-23 25.9-47.3 44.5-65.1 10.8-10.4 32.9-9 50-12.9 42.2 27.9 84.4 55.8 126.1 83.4 42.6-46.7 82.2-92.2 124.2-135.4 19.7-20.3 41.8-40.8 75.1-32.8z"/><path class="a" d="m1180 983.7l-26.5 63.5c-83-2.9-138 36.1-174.5 109.4-15 30.1-41.4 54.3-61.2 82.2-21.8 30.7-53.3 41.3-88 45.3-54 6.2-77.1-23-52.3-71.5 33.9-66.8 71.8-131.7 110.2-196.2 34.4-57.9 73.7-112.3 128.3-153.7 45.5-21.4 89.5-47.5 137-62.6 30.5-9.6 66.2-3 99.5-3.7-21.2 53.1-42.5 106.1-63.5 159.1-3.7 9.2-6 18.8-9 28.2z"/><path class="b" d="m947.7 446c-40.5 3.9-66.8 22.7-77.2 66.3-8.9-49.2-46-58.4-85.3-66.4 43.1-4 74.7-20.8 85.3-68.9 7.3 45.3 37.9 61.6 77.2 69z"/><path class="a" d="m1673.7 615.8c-42.9-43.7-48-105.6-12.5-152 33.4-43.6 96.6-57.6 145.6-32.3 49.9 25.7 72.4 83.1 53.8 137-10.5-3.1-21-6-36.3-10.4-11.7 7.2-29.8 18.4-48 29.7-6-4.9-13-10.8-21.4-17.8-3.2 13.1-5.6 23-9.1 36.9-27.1-10.9-57.4-42.2-72.1 8.9z"/><path class="a" d="m1673.7 615.8c14.7-51.1 45-19.8 72.1-8.9 3.5-13.8 5.9-23.8 9.1-36.9 8.4 7 15.5 12.9 21.4 17.8 18.1-11.3 36.3-22.5 48-29.7 15.3 4.4 25.8 7.3 36.3 10.4-26.4 82.8-119.8 106.4-186.9 47.3z"/><path fill-rule="evenodd" class="a" d="m1095.3 1205c3.1 0 6.9 0.5 8.5 1.2 1.5 0.7 23.9 15.3 49.7 32.6 25.8 17.2 48.8 33.2 51.1 35.5 2.3 2.4 4.6 5.9 5.3 8.2 0.6 2.2 1.1 6 1.1 8.5 0 2.5-0.6 6.1-1.4 8-0.8 1.9-2.8 6-4.6 9-1.8 3-5 8.9-7 13-2.1 4.1-9.6 21-16.8 37.5-7.1 16.5-17.1 39.7-22.2 51.5-5.1 11.8-11.9 28.3-15.2 36.5-3.3 8.3-8.5 21.3-11.4 29-3 7.7-5.4 15.5-5.4 17.3 0 1.7 0.6 5.5 1.3 8.3 0.6 2.9 1.7 5.4 2.2 5.6 0.5 0.3 4.4-0.5 8.5-1.7 4.1-1.2 10.1-3.5 13.3-5.1 3.1-1.6 9.4-5.9 13.9-9.7 4.6-3.7 10.3-8.9 12.8-11.6 2.5-2.7 7.4-8.1 11-12 3.6-3.9 20.9-23.1 38.5-42.6 17.5-19.5 33.1-36.8 34.6-38.5 1.5-1.7 8.9-10 16.5-18.5 7.7-8.5 14.8-16.3 15.9-17.3 1.1-0.9 3.1-2.3 4.5-3.1 1.4-0.7 4.3-1.6 6.5-2 2.2-0.4 6-0.4 8.5 0 3.5 0.6 8.8 3.6 23.5 13.6 10.5 7 31.6 21.4 47 31.8 15.4 10.4 29.6 20.7 31.6 22.7 2 2.1 4.1 5.6 4.7 7.8 0.7 2.2 1.2 5.3 1.2 7 0 1.7-0.5 4.7-1 6.8-0.7 2.4-10.8 16.7-29.1 41-15.5 20.4-43 57-61.2 81.2-19.5 25.9-36.8 47.9-42.1 53.5-5 5.2-19.4 20.1-32.1 33-12.6 12.9-44.4 44.9-70.5 71.1-26.1 26.1-54.7 54.3-63.5 62.5-8.9 8.2-21.2 19.3-27.5 24.7-6.3 5.5-19.4 15.8-29 23.1-9.6 7.3-24.9 18.2-34 24.3-9.1 6-21.5 13.9-27.5 17.5-6 3.6-14.4 8.4-18.5 10.7-4.1 2.3-10.4 5.6-14 7.3-3.6 1.6-10.8 4.5-16 6.4-5.2 1.9-13.1 4.2-17.5 5.1-5.3 1.2-12.5 1.7-21.5 1.8-12.2 0-14.3-0.3-22.5-3-5.4-1.7-11.8-4.7-16-7.6-3.8-2.5-8.7-6.6-10.8-9-2.1-2.4-5.4-6.6-7.3-9.4-1.9-2.7-5-9.2-6.9-14.2-1.9-5.1-4.2-13.9-5.1-19.5-1.3-8-1.5-14.3-1.1-27.8 0.4-11.5 1.4-22.8 3.1-33 1.4-8.5 3.7-21.6 5.1-29 1.5-7.4 4-19.6 5.6-27 1.7-7.4 4.4-19.1 6-26 1.7-6.9 5.7-22.2 8.9-34 3.3-11.8 7.1-25.3 8.5-30 1.5-4.7 3.3-10.7 4-13.5 0.8-2.7 4.5-15.1 8.4-27.5 3.8-12.4 9.3-28.8 12.2-36.5 2.8-7.7 6.1-16.7 7.4-20 1.2-3.3 5.6-14.3 9.8-24.5 4.1-10.2 12-29.1 17.5-42 5.5-12.9 12.1-28.7 14.7-35 2.6-6.3 5.4-12.8 6.2-14.5 0.9-1.7 25.7-46.9 55.1-100.5 29.5-53.6 54.7-99 56.1-100.8 1.5-1.9 4.9-4.5 7.6-5.8 3.5-1.7 6.7-2.4 10.8-2.4zm-10.2 65.9c-7.7 14.1-15.8 29.2-18.2 33.6-2.3 4.4-5 9.2-6 10.7-1.1 1.6-1.9 3.1-1.9 3.5 0 0.5-2.1 4.4-4.6 8.8-2.5 4.4-6.6 11.8-9.1 16.5-2.5 4.7-5.4 9.7-6.4 11.2-1 1.6-1.9 3.1-1.9 3.5 0 0.5-2.1 4.4-4.6 8.8-2.6 4.4-6.7 11.8-9.2 16.5-2.5 4.7-5.3 9.7-6.4 11.2-1 1.6-1.8 3.1-1.8 3.5 0 0.5-2.1 4.4-4.6 8.8-2.6 4.4-6.4 11.4-8.7 15.5-2.2 4.1-4.3 8-4.7 8.5-0.4 0.5-1.5 3-2.3 5.5-0.8 2.5-8.8 21.8-17.7 43-8.9 21.2-18 43-20.2 48.5-2.2 5.5-4.8 11.8-5.8 14-1 2.2-4.4 11-7.5 19.5-3.1 8.5-8.5 24.7-12 36-3.5 11.3-9.7 32.4-13.8 47-4.1 14.6-9.8 35-12.6 45.5-2.7 10.5-6.4 25.3-8.1 33-1.7 7.7-4.4 20.7-6 29-1.6 8.2-3.8 20.6-4.9 27.5-1.1 6.9-2.5 17.2-3.1 23-0.5 5.8-0.7 12.7-0.4 15.5 0.3 2.7 1.2 8.4 2 12.5 0.8 4.1 2.8 10.2 4.4 13.5 1.7 3.3 3.8 6.9 4.8 8 0.9 1.1 3.3 3.2 5.2 4.7 1.9 1.4 6 3.3 9 4.2 3 0.9 7.6 1.6 10.3 1.6 2.6 0 8.2-0.7 12.5-1.6 4.2-0.9 11.7-3.2 16.7-5.1 5-1.9 13.3-5.7 18.5-8.5 5.2-2.8 15.1-8.4 22-12.6 6.9-4.2 18.6-11.6 26-16.5 7.4-5 18.7-12.8 25-17.5 6.3-4.7 16-12.2 21.5-16.6 5.5-4.4 17.2-14.6 26-22.6 8.7-8 26-24.2 38.4-36 12.4-11.8 50-49.6 83.7-84 59.9-61.1 61.6-63 77.6-84.1 9-11.9 19-25.2 22.3-29.5 3.3-4.3 6.5-8.5 7.2-9.4 0.6-0.8 8-10.7 16.3-22 8.4-11.3 17.7-23.7 20.7-27.5 3-3.8 10.8-14.2 17.4-23l11.9-16c-15.1-9.9-19.7-13.1-20-13.5-0.3-0.3-5.7-4-12-8.2-6.3-4.2-15.3-10.3-20-13.5-4.7-3.2-10.5-7.2-12.9-8.8l-4.3-3c-6.7 7-13.9 15.1-20.4 22.5-6.5 7.4-18.4 20.7-26.4 29.6-8 8.8-24.2 26.8-36.1 40-11.9 13.1-26.1 28.2-31.5 33.4-5.5 5.3-12.8 11.7-16.4 14.2-3.6 2.5-11.2 6.9-17 9.7-8.6 4.2-13.7 5.8-28.2 9.1-9.8 2.2-19.9 4-22.5 4-3 0-6-0.7-8-2-1.8-1.1-3.8-3-4.4-4.3-0.7-1.2-3-9.4-5.2-18.2-3.5-14.1-4-17.5-4.1-28.5-0.1-11.8 0.1-13 3.3-22 1.8-5.2 3.9-10.8 4.6-12.5 0.7-1.7 2.2-5.5 3.3-8.5 1.1-3 5.6-14.3 10-25 4.4-10.7 17.1-40.4 28.2-66 11.1-25.6 22.4-50.7 25.1-55.8l4.9-9.2c-23.6-15.9-40-26.9-51.7-34.6l-21.2-14.2z"/></svg>