<svg version="1.2" xmlns="http://www.w3.org/2000/svg" viewBox="0 0 2500 2500" width="500" height="500"><style>.a{fill:#fff}</style><path fill-rule="evenodd" class="a" d="m1918.5 739.1l149.8 149.4-307 303.9-446.7-440.8-446.7 440.8-651.5-645.1c-331.9 485.7-282 1155.7 149.8 1586.6 244.6 244.1 564 366.1 885.9 366.1 287 0 576.5-99.6 808.6-293.9l-279.5-279c-336.9 261.5-826.1 239.1-1135.6-69.7-159.7-159.4-244.6-368.6-249.6-577.8l474.2 468.2 444.2-443.3 446.7 440.8 586.5-577.8 152.2 152v-580.4z"/><path fill-rule="evenodd" class="a" d="m2058.3 293.3c-479.2-403.5-1192.9-391-1659.7 39.9l279.5 276.5c162.3-144.5 366.9-219.2 571.5-219.2 187.2 0 371.9 59.8 526.6 179.3z"/></svg>