<svg xmlns="http://www.w3.org/2000/svg" xml:space="preserve" style="fill-rule:evenodd;clip-rule:evenodd;stroke-linejoin:round;stroke-miterlimit:2" viewBox="0 0 434 498"><path d="M216.246 55.104 168.602 27.6 215.969.19 263.614 27.695 216.246 55.104ZM223.917 59.534 271.561 87.039 318.928 59.629 271.284 32.125 223.917 59.534ZM47.725 211.97 47.725 157.506.224 130.072.224 184.539 47.725 211.97ZM102.899 243.835 102.899 189.371 55.401 161.94 55.401 216.404 102.899 243.835ZM158.075 221.234 158.075 275.697 110.573 248.266 110.573 193.803 158.075 221.234ZM213.253 307.563 213.253 253.1 165.755 225.669 165.755 280.133 213.253 307.563ZM102.899 252.7 102.899 307.166 55.401 279.736 55.401 225.269 102.899 252.7ZM47.725 275.303 47.725 220.836.224 193.405.224 247.872 47.725 275.303ZM158.075 284.565 158.075 339.032 110.573 311.601 110.573 257.134 158.075 284.565ZM213.253 370.895 213.253 316.428 165.755 288.998 165.755 343.464 213.253 370.895ZM102.899 316.031 102.899 370.495 55.401 343.064 55.401 288.601 102.899 316.031ZM47.725 338.629 47.725 284.165.224 256.734.224 311.198 47.725 338.629ZM158.075 347.894 158.075 402.361 110.573 374.927 110.573 320.463 158.075 347.894ZM213.253 434.227 213.253 379.76 165.755 352.329 165.755 406.796 213.253 434.227ZM102.899 379.36 102.899 433.827 55.401 406.396 55.401 351.929 102.899 379.36ZM47.725 401.963 47.725 347.496.224 320.065.224 374.532 47.725 401.963ZM158.075 411.228 158.075 465.692 110.573 438.261 110.573 383.794 158.075 411.228ZM213.253 497.554 213.253 443.091 165.755 415.66 165.755 470.124 213.253 497.554ZM268.429 280.135 268.429 225.671 220.927 253.102 220.927 307.566 268.429 280.135ZM268.429 343.466 268.429 288.998 220.927 316.429 220.927 370.897 268.429 343.466ZM268.429 406.799 268.429 352.332 220.927 379.763 220.927 434.23 268.429 406.799ZM268.429 470.125 268.429 415.661 220.927 443.092 220.927 497.556 268.429 470.125ZM279.236 91.468 326.877 118.972 374.247 91.563 326.603 64.059 279.236 91.468ZM168.882 91.381 216.526 118.885 263.896 91.475 216.252 63.971 168.882 91.381ZM161.211 86.952 113.567 59.448 160.938 32.039 208.582 59.543 161.211 86.952ZM224.196 123.315 271.84 150.82 319.208 123.41 271.567 95.906 224.196 123.315ZM114.103 123.351 161.762 150.866 208.888 123.338 161.225 95.824 114.103 123.351ZM106.443 118.934 58.529 91.294 105.894 63.886 153.566 91.406 106.443 118.934ZM169.417 155.284 216.946 182.731 264.192 155.263 216.543 127.756 169.417 155.284ZM272.261 214.589 224.612 187.153 271.856 159.686 319.748 187.166 272.261 214.589ZM59.091 155.218 106.735 182.722 154.103 155.309 106.462 127.805 59.091 155.218ZM51.557 150.855 4 123.389 50.882 95.742 98.801 123.384 51.557 150.855ZM114.404 187.151 161.911 214.585 209.279 187.172 161.772 159.738 114.404 187.151ZM217.091 246.452 169.586 219.017 216.957 191.602 264.585 219.025 217.091 246.452ZM323.611 193.805 323.611 248.269 276.109 275.7 276.109 221.236 323.611 193.805ZM323.611 257.134 323.611 311.601 276.109 339.032 276.109 284.565 323.611 257.134ZM323.611 320.466 323.611 374.929 276.109 402.363 276.109 347.896 323.611 320.466ZM276.109 411.228 323.611 383.794 323.611 438.261 276.109 465.692 276.109 411.228ZM378.789 216.406 378.789 161.943 331.291 189.373 331.291 243.837 378.789 216.406ZM433.965 130.074 433.965 184.541 386.464 211.972 386.464 157.508 433.965 130.074ZM378.789 279.737 378.789 225.27 331.291 252.701 331.291 307.168 378.789 279.737ZM433.965 193.407 433.965 247.874 386.464 275.305 386.464 220.838 433.965 193.407ZM378.789 343.067 378.789 288.603 331.291 316.034 331.291 370.497 378.789 343.067ZM433.965 256.739 433.965 311.203 386.464 338.634 386.464 284.17 433.965 256.739ZM378.789 406.398 378.789 351.932 331.291 379.362 331.291 433.829 378.789 406.398ZM433.965 320.068 433.965 374.535 386.464 401.966 386.464 347.499 433.965 320.068ZM382.613 150.865 334.581 123.388 381.937 95.987 430.089 123.445 382.613 150.865ZM327.442 182.725 279.537 155.238 326.896 127.833 374.92 155.306 327.442 182.725Z" style="fill:inherit;fill-rule:nonzero"/></svg>