<svg xmlns="http://www.w3.org/2000/svg" fill="rgba(255, 255, 255, 0.9)" viewBox="0 0 200 200"><path d="M16.236,91.375C16.323,91.341 16.461,91.279 16.468,91.274C19.569,89.344 22.71,87.453 25.831,85.552L74.711,55.852L74.714,55.851C75.188,55.568 75.693,55.325 76.188,55.063C76.283,55.013 76.395,55.013 76.489,55.061C78.438,54.72 80.387,55.333 82.335,55.547C88.427,56.197 94.499,57.017 100.571,57.788C106.322,58.518 112.073,59.228 117.804,60.028C118.736,60.155 119.508,60.182 120.151,59.816C120.57,59.578 120.927,59.173 121.247,58.539C122.128,56.6 123.266,54.788 124.63,53.152C124.654,53.124 124.682,53.1 124.713,53.081C124.739,53.047 124.773,53.018 124.812,52.996C130.66,49.745 136.597,46.641 142.68,43.733C142.724,43.679 142.786,43.64 142.858,43.623C145.012,43.132 147.208,42.845 149.417,42.766C155.414,42.116 161.412,41.626 167.34,41.076C167.349,41.076 167.358,41.075 167.366,41.075C167.712,41.071 168.057,41.103 168.396,41.17L169.049,40.962C171.443,37.461 174.382,34.397 177.005,31.078C178.937,28.657 180.938,26.275 182.909,23.883L182.912,23.88C183.228,23.506 183.496,23.032 184.186,22.938C184.288,22.924 184.391,22.959 184.462,23.033C184.534,23.106 184.567,23.21 184.551,23.311C183.552,29.589 182.554,35.846 181.555,42.081C181.558,42.604 181.251,43.082 180.773,43.296C180.758,43.303 180.742,43.309 180.726,43.313L156.712,56.952C155.963,57.385 155.244,57.888 154.515,58.361C153.602,60.201 152.009,61.501 150.73,63.047C147.949,66.409 145.047,69.682 142.175,72.974C142.166,72.983 142.157,72.993 142.148,73.001C142.013,73.123 141.868,73.232 141.715,73.327L141.618,73.668L157.577,99.519C157.638,99.62 157.641,99.745 157.584,99.848C157.582,99.851 157.58,99.854 157.579,99.857L157.373,100.199C157.264,100.381 157.09,100.365 157.09,100.365C157.053,100.365 157.016,100.359 156.982,100.346C156.982,100.346 138.534,93.822 138.534,93.822C138.552,93.914 138.569,94.007 138.588,94.098C139.206,94.472 139.612,95.006 139.957,95.59C140.284,96.143 140.553,96.741 140.932,97.258C140.938,97.266 140.944,97.274 140.949,97.283C141.824,98.743 142.779,100.153 143.809,101.508C147.401,101.226 150.992,101.464 154.603,101.385C154.605,101.385 154.608,101.385 154.61,101.385C155.386,101.385 155.732,101.765 155.936,102.252C156.047,102.515 156.108,102.818 156.184,103.095C157.677,108.655 159.157,114.22 160.624,119.787C161.794,124.167 162.974,128.547 164.134,132.937C164.136,132.945 164.138,132.953 164.14,132.962C164.191,133.243 164.224,133.527 164.238,133.813C164.248,133.825 164.257,133.839 164.265,133.853C164.509,134.296 164.662,134.673 164.711,134.986C164.751,135.247 164.723,135.473 164.632,135.667C164.539,135.864 164.381,136.033 164.137,136.167C163.848,136.325 163.418,136.437 162.821,136.494L162.819,136.494C160.817,136.672 158.839,137.141 156.857,137.53C158.743,138.818 160.949,139.672 163.106,141.173C163.196,141.236 163.248,141.34 163.245,141.449C163.242,141.559 163.184,141.659 163.09,141.717L138.822,156.662C138.814,156.666 138.806,156.67 138.798,156.674C138.569,156.924 138.335,157.022 138.127,157.012C137.881,157.001 137.614,156.841 137.385,156.453C137.171,156.204 136.951,155.954 136.739,155.696C136.731,155.686 136.723,155.676 136.716,155.665C129.5,148.349 122.284,141.013 115.068,133.658C111.551,130.083 108.015,126.536 104.497,122.971C100.31,140.455 96.113,157.943 91.907,175.434C91.835,175.758 91.706,176.072 91.604,176.386L91.487,176.911C91.454,177.059 91.322,177.165 91.17,177.165C91.17,177.165 91.111,177.173 91.032,177.134C91.006,177.122 90.979,177.105 90.954,177.083L90.662,176.838C90.616,176.811 90.577,176.771 90.549,176.723C86.362,169.483 82.175,162.239 77.988,154.992C70.409,141.833 62.839,128.67 55.28,115.505C55.079,115.173 54.917,114.821 54.736,114.5L54.223,113.902C54.211,113.887 54.2,113.872 54.191,113.856C52.049,112.968 49.995,111.884 48.052,110.619C37.465,104.723 26.888,98.807 16.32,92.871C16.283,92.865 16.247,92.853 16.212,92.834C15.701,92.551 15.557,92.279 15.542,92.101C15.525,91.906 15.616,91.728 15.803,91.592C15.921,91.505 16.085,91.434 16.236,91.375Z" transform="translate(-1.32 -1.32)scale(1.01319)"/></svg>