<svg version="1.2" xmlns="http://www.w3.org/2000/svg" viewBox="0 0 1500 1500" width="1500" height="1500"><defs><linearGradient id="P" gradientUnits="userSpaceOnUse"/><linearGradient id="g1" x2="1" href="#P" gradientTransform="matrix(739.206,290.658,-231.413,588.532,422.182,771.74)"><stop stop-color="#fff" stop-opacity="0"/><stop offset="1" stop-color="#cacaca" stop-opacity="1"/></linearGradient></defs><style>.a{fill:#cacaca}.b{fill:#fff}.c{fill:url(#g1)}</style><path class="a" d="m1475.8 940l-324.3-562.7c-71.1-117.3-244.5-118.5-313.2 5l-340.5 585.1c-63.6 107.3 15 242 142.2 242h682.4c128.5 0 224.5-138.5 153.4-269.4z"/><path class="b" d="m1008 983.6l-20-34.9c-18.7-32.4-59.9-102.3-59.9-102.3l-274.4-476.6c-71.1-106-239.5-114.7-310.6 18.8l-319.4 552.6c-66.1 116.1 12.5 267 155.9 268.2h678.7 289.4 172.2c-175.9 1.3-232-89.8-311.9-225.8z"/><path class="c" d="m1008.1 983.6l-20-34.9c-18.7-32.4-59.9-102.3-59.9-102.3l-177.2-311.9-254.5 434.2c-63.6 107.3 15 242 142.2 242h218.3 289.5 173.4c-177.1-1.3-232-91.1-311.8-227.1z"/></svg>