<svg xmlns="http://www.w3.org/2000/svg" fill="rgba(255, 255, 255, 0.9)" viewBox="0 0 200 200"><path d="M50.11,87.05C47.7,85.78 45.3,84.47 42.91,83.19L37.21,80.08L37.08,80C37.013,79.929 36.931,79.874 36.84,79.84C36.756,79.799 36.663,79.779 36.57,79.78C35.9,79.43 35.22,79.06 34.57,78.73C33.922,78.283 33.196,77.961 32.43,77.78C32.24,78.44 32.03,79.1 31.82,79.78C31.815,79.823 31.815,79.867 31.82,79.91C31.74,80.3 32.01,80.51 32.34,80.69L38.48,83.98L44.35,87.12C44.26,87.05 44.03,87.12 43.8,87.12L30.87,87.12C30.559,87.066 30.239,87.146 29.99,87.34L29.63,89.6C29.73,90.07 30.11,89.9 30.38,89.9L48.38,89.9C50.13,89.9 50.1,89.9 50.58,88.2C50.78,87.56 50.62,87.31 50.11,87.05ZM47.11,118.99C47.078,118.686 46.819,118.453 46.513,118.453C46.482,118.453 46.451,118.455 46.42,118.46L31.9,118.46C31.66,118.46 31.41,118.46 31.38,118.77C31.59,119.48 31.78,120.19 31.99,120.91C32.243,121.096 32.56,121.172 32.87,121.12L41.18,121.12C38.77,122.36 36.53,123.63 34.26,124.81C33.99,124.95 33.67,125.05 33.57,125.39C33.803,126.17 34.094,126.933 34.44,127.67C34.86,127.75 35.16,127.46 35.44,127.29C37.44,126.23 39.49,125.15 41.52,124.09C42.97,123.3 44.41,122.49 45.86,121.72C47.6,120.82 47.59,120.84 47.11,119L47.11,118.99ZM151.11,127.11C149.55,126.65 149.55,126.63 148.6,127.84C148.604,127.863 148.604,127.887 148.6,127.91C148.596,127.933 148.6,127.98 148.55,128.01C148.35,128.33 147.92,128.61 148.29,129.01C149.87,130.64 151.45,132.27 153.11,133.82C155.11,135.7 157.11,137.67 158.99,139.67C159.55,139.003 160.034,138.275 160.43,137.5C160.5,137.12 160.2,136.95 159.99,136.73C158.75,135.47 157.49,134.23 156.24,132.97C155.59,132.33 154.93,131.7 154.24,130.97C156.91,131.74 159.47,132.55 162.03,133.32C162.3,133.39 162.57,133.56 162.85,133.32C163.293,132.59 163.675,131.824 163.99,131.03L151.11,127.11ZM167.96,117.94L154.53,117.94C152.59,117.94 152.59,117.94 152.16,119.84C152.08,120.22 152.16,120.46 152.51,120.64C153.19,120.95 153.83,121.33 154.51,121.64L165.51,127.51C165.864,126.776 166.165,126.017 166.41,125.24C166.41,124.8 166.06,124.7 165.78,124.56C163.78,123.487 161.78,122.41 159.78,121.33C159.337,121.05 158.86,120.828 158.36,120.67L167,120.67C167.343,120.716 167.692,120.656 168,120.5C168.317,119.705 168.554,118.881 168.71,118.04C168.49,117.84 168.18,117.94 167.91,117.94L167.96,117.94ZM149.88,104.74C149.97,103.46 150,103.46 151.31,103.46L169.8,103.46C170.22,103.46 170.67,103.56 171.03,103.23C171.08,102.367 171.08,101.503 171.03,100.64C170.651,100.425 170.209,100.347 169.78,100.42L150.72,100.42C150.32,100.42 150.08,100.23 150.09,99.81C150.09,98.97 149.95,98.14 149.94,97.31C149.94,96.14 149.94,96.14 151.06,96.14L170.26,96.14C170.63,96.14 170.87,96.01 170.93,95.76C170.968,95.612 170.968,95.458 170.93,95.31C170.936,94.639 170.876,93.969 170.75,93.31C170.382,93.077 169.937,92.995 169.51,93.08L150.56,93.08C149.56,93.08 149.56,93.08 149.37,92.08C149.033,89.927 148.539,87.801 147.89,85.72C147.858,85.667 147.835,85.61 147.82,85.55C147.321,84.552 147.37,83.364 147.95,82.41C148.53,81.456 147.95,82.41 147.95,82.41C148.133,81.578 148.773,80.917 149.6,80.71C152.49,79.71 155.36,78.62 158.22,77.53C158.54,77.4 159.03,77.39 159.05,76.97C159.05,76.6 158.54,76.63 158.27,76.43C160.65,75.7 163.02,75.03 165.36,74.27C165.63,74.18 166.01,74.18 165.99,73.73L165.1,71.58C164.81,71.33 164.51,71.48 164.22,71.58C161.1,72.513 157.983,73.453 154.87,74.4C154.471,74.576 154.036,74.655 153.6,74.63C153.756,74.353 153.963,74.109 154.21,73.91C156.68,71.43 159.21,68.97 161.62,66.48C161.86,66.23 162.28,66.03 162.1,65.55C161.71,64.87 161.31,64.21 160.93,63.55C160.54,63.34 160.36,63.69 160.16,63.88C159.05,64.97 157.96,66.08 156.85,67.18C154.85,69.18 152.92,71.1 150.97,73.08C150.668,73.421 150.181,73.534 149.76,73.36C148.814,73.209 148.066,72.465 147.91,71.52C147.853,71.264 147.758,71.018 147.63,70.79C147.271,70.173 147.451,69.373 148.04,68.97C151.16,65.91 154.22,62.81 157.3,59.73C157.55,59.48 157.97,59.28 157.79,58.79L156.37,56.9C155.9,56.85 155.71,57.24 155.46,57.51C152.53,60.41 149.63,63.33 146.7,66.24C146.19,66.76 146.17,66.75 145.92,66.09C145.48,64.95 145.05,63.8 144.64,62.65C144.56,62.44 144.51,62.15 144.25,62.11L144.25,62.04L144.25,62.11C143.98,62.11 143.96,62.43 143.88,62.63C143.24,64.24 142.69,65.91 142.05,67.54C141.58,68.73 141.2,69.98 140.69,71.16C140.39,71.06 140.31,70.81 140.17,70.63C139.307,69.449 138.379,68.318 137.39,67.24C136.85,66.67 136.85,66.58 137.39,66.02C138.78,64.62 140.16,63.24 141.56,61.85C144.76,58.65 147.96,55.443 151.16,52.23C151.4,51.99 151.83,51.79 151.64,51.3C151.113,50.678 150.531,50.106 149.9,49.59C149.55,49.67 149.36,49.96 149.13,50.2L135.54,63.53C135.41,63.67 135.26,63.8 135.14,63.94C134.87,64.23 134.63,64.2 134.34,63.94C133.57,63.29 132.84,62.6 132.07,61.94C131.3,61.28 131.41,61.36 132.07,60.76L145.79,47C146.067,46.807 146.286,46.54 146.42,46.23C145.853,45.637 145.227,45.104 144.55,44.64C144.05,44.46 143.84,44.9 143.55,45.16L129.72,59C129.08,59.64 129.08,59.64 128.35,59.14C125.552,57.243 122.574,55.625 119.46,54.31C116.501,53.063 113.426,52.112 110.28,51.47C109.79,51.38 109.57,51.16 109.58,50.66L109.58,44.24C109.575,44.193 109.575,44.147 109.58,44.1L109.58,30.52C109.629,30.186 109.539,29.846 109.33,29.58C108.488,29.383 107.625,29.286 106.76,29.29C106.44,29.65 106.53,30.1 106.53,30.52L106.53,49.69C106.53,49.99 106.62,50.32 106.4,50.59C106.404,50.61 106.404,50.63 106.4,50.65C106.333,50.721 106.237,50.758 106.14,50.75C104.41,50.53 102.66,50.6 100.92,50.43C99.92,50.33 99.92,50.29 99.92,49.32L99.92,40.53C99.94,40.29 99.94,40.05 99.92,39.81L99.92,29.8C99.941,29.513 99.864,29.227 99.7,28.99C98.834,28.917 97.963,28.933 97.1,29.04C96.911,29.26 96.827,29.553 96.87,29.84L96.87,49.5C96.87,50.42 96.87,50.4 95.99,50.5C95.11,50.6 94.37,50.64 93.56,50.75C92.75,50.86 92.56,50.83 92.56,49.89L92.56,30.16C92.564,30.087 92.564,30.013 92.56,29.94C92.56,29.59 92.41,29.38 92.17,29.33C92.031,29.304 91.888,29.322 91.76,29.38C91.084,29.385 90.411,29.479 89.76,29.66C89.565,30.02 89.498,30.437 89.57,30.84L89.57,50.48C89.57,51.07 89.48,51.48 88.78,51.6C84.933,52.435 81.204,53.746 77.68,55.5C76.81,55.93 76.76,55.92 76.49,55.01C75.82,52.73 75.11,50.47 74.43,48.19C73.22,44.19 71.98,40.12 70.78,36.07C70.69,35.76 70.62,35.39 70.17,35.4C69.436,35.679 68.724,36.013 68.04,36.4C67.83,36.68 67.97,36.95 68.04,37.22C68.82,39.78 69.58,42.36 70.36,44.92C71.02,47.06 71.66,49.21 72.36,51.45C68.81,47.89 65.36,44.45 61.83,40.92C61.657,40.686 61.421,40.506 61.15,40.4C60.385,40.823 59.665,41.322 59,41.89C58.94,42.33 59.32,42.51 59.56,42.75L73.39,56.6L73.8,57C74.15,57.31 74.1,57.54 73.7,57.77C72.82,58.27 72.02,58.86 71.17,59.42C70.32,59.98 70.34,59.97 69.64,59.27L55.85,45.48C55.61,45.25 55.44,44.87 54.99,44.93C54.324,45.408 53.699,45.94 53.12,46.52C53.06,46.97 53.44,47.14 53.68,47.37C58.19,51.91 62.68,56.42 67.25,60.95C67.38,61.09 67.51,61.23 67.65,61.36C67.97,61.65 67.97,61.9 67.65,62.17C66.331,63.282 65.073,64.464 63.88,65.71C63.25,66.36 63.24,66.35 62.58,65.71C58.047,61.197 53.52,56.687 49,52.18C48.82,52.01 48.67,51.83 48.48,51.68C48.29,51.53 48.15,51.38 47.92,51.55C47.352,52.088 46.824,52.666 46.34,53.28C46.17,53.52 46.34,53.69 46.47,53.85C46.626,54.033 46.793,54.207 46.97,54.37L60.61,68C61.24,68.62 61.23,68.63 60.7,69.29C60.17,69.95 59.53,70.81 59,71.6C58.57,72.2 58.57,72.19 58,71.7C57.09,70.85 56.3,69.88 55.43,68.99C53.51,67.04 51.57,65.13 49.63,63.19C47.69,61.25 45.91,59.42 44,57.55C43.79,57.34 43.61,56.95 43.18,57.17C42.605,57.829 42.105,58.55 41.69,59.32C41.82,59.602 42.02,59.846 42.27,60.03C45.37,63.14 48.46,66.22 51.56,69.34C52.73,70.49 53.9,71.65 55.05,72.82C55.095,72.858 55.135,72.902 55.17,72.95L55.31,73.08C55.626,73.43 55.96,73.764 56.31,74.08C56.75,74.45 56.73,74.78 56.45,75.26C55.071,77.673 53.917,80.207 53,82.83C52.992,82.866 52.992,82.904 53,82.94L52.93,83.12C51.852,86.036 51.062,89.05 50.57,92.12C50.39,93.32 50.37,93.32 49.17,93.32L29.71,93.32C29.415,93.31 29.154,93.52 29.1,93.81C29.1,94.53 29.01,95.25 28.97,95.97C29.27,96.5 29.8,96.33 30.26,96.33L48.97,96.33C49.97,96.33 50.09,96.46 49.97,97.33C49.823,98.932 49.797,100.544 49.89,102.15C49.89,102.71 49.74,102.96 49.19,102.92L30.19,102.92C29.77,102.92 29.32,102.83 28.96,103.15C28.928,103.966 28.972,104.782 29.09,105.59C29.42,106.11 29.94,105.96 30.4,105.96L49.59,105.96C49.61,105.958 49.63,105.957 49.65,105.957C50.001,105.957 50.29,106.246 50.29,106.597C50.29,106.601 50.29,106.606 50.29,106.61C50.39,107.36 50.5,108.13 50.64,108.87C50.91,110.23 50.91,110.24 49.53,110.24L30.9,110.24C30.475,110.158 30.034,110.244 29.67,110.48C29.717,111.351 29.864,112.213 30.11,113.05C30.45,113.36 30.88,113.27 31.28,113.27L50.62,113.27C51.62,113.27 51.62,113.27 51.92,114.27C52.93,117.673 54.301,120.959 56.01,124.07C57.719,127.181 56.01,124.14 56.06,124.17L56.12,124.28C56.932,125.888 57.897,127.415 59,128.84C59.17,128.994 59.268,129.212 59.268,129.442C59.268,129.715 59.129,129.971 58.9,130.12C57.46,131.51 56.06,132.95 54.63,134.37L54.51,134.49C51.43,137.59 48.34,140.65 45.27,143.75C45.03,143.98 44.74,144.16 44.65,144.52C45.113,145.24 45.649,145.91 46.25,146.52C46.74,146.73 46.92,146.29 47.16,146.04C51.62,141.607 56.067,137.17 60.5,132.73L60.96,132.27C61.24,131.97 61.46,131.99 61.72,132.27C62.783,133.582 63.925,134.828 65.14,136C65.91,136.77 65.91,136.77 65.14,137.51C60.673,141.97 56.217,146.43 51.77,150.89C51.52,151.13 51.15,151.3 51.21,151.74C51.736,152.322 52.312,152.857 52.93,153.34C53.42,153.52 53.62,153.09 53.86,152.85L67.46,139.27C68.03,138.7 68.08,138.7 68.7,139.2C69.32,139.7 70.14,140.31 70.89,140.84C71.64,141.37 71.61,141.39 71,142.01L70.64,142.37L57.39,155.65C57.16,155.89 56.78,156.07 56.84,156.51L58.73,157.93C59.15,158.12 59.34,157.77 59.56,157.56C60.94,156.21 62.26,154.82 63.65,153.5L63.79,153.37C67.05,150.13 70.293,146.887 73.52,143.64C73.89,143.26 74.22,143.06 74.77,143.38C79.207,145.929 84.005,147.79 89,148.9C89.93,149.1 89.92,149.12 89.92,150.1L89.92,169.19C89.895,169.525 89.915,169.861 89.98,170.19C90.016,170.26 90.067,170.322 90.13,170.37L92.55,170.68C92.93,170.5 92.93,170.14 92.93,169.82L92.93,150.64C92.93,149.64 92.93,149.64 93.93,149.71C95.44,149.89 96.93,149.96 98.45,150.05C99.45,150.11 99.52,150.05 99.52,151.17L99.52,156.38C99.51,156.49 99.51,156.6 99.52,156.71L99.52,169.94C99.475,170.198 99.475,170.462 99.52,170.72L99.52,171L99.68,171C100.53,171.155 101.4,171.155 102.25,171C102.58,170.63 102.48,170.18 102.48,169.76L102.48,150.77C102.48,150.21 102.66,149.94 103.26,149.93C104.124,149.895 104.985,149.815 105.84,149.69C106.68,149.58 106.76,149.69 106.77,150.48L106.77,169.48C106.684,169.909 106.77,170.355 107.01,170.72C107.829,170.692 108.645,170.598 109.45,170.44C109.86,170.21 109.82,169.8 109.82,169.44L109.82,156.64C109.815,156.593 109.815,156.547 109.82,156.5C109.75,154.28 109.82,152.07 109.82,149.85C109.82,149.23 110.04,148.98 110.65,148.85C115.647,147.676 120.471,145.857 125,143.44C125.432,143.137 126.033,143.225 126.36,143.64C130.94,148.24 135.53,152.833 140.13,157.42C140.38,157.66 140.59,157.99 140.96,158.07C141.662,157.645 142.331,157.167 142.96,156.64C143.16,156.14 142.72,155.95 142.47,155.71C137.917,151.137 133.357,146.573 128.79,142.02C128.22,141.44 128.23,141.39 128.87,140.94C130.303,139.939 131.676,138.854 132.98,137.69C133.35,137.35 133.62,137.36 133.98,137.69C134.56,138.3 135.16,138.88 135.75,139.48L147.67,151.38C147.92,151.62 148.11,152.05 148.6,151.87C149.221,151.34 149.803,150.765 150.34,150.15C150.41,149.73 150.06,149.56 149.84,149.34L141.3,140.79C139.61,139.12 137.94,137.44 136.3,135.79C135.71,135.2 135.7,135.17 136.3,134.59C136.9,134.01 137.44,133.3 138.03,132.68C138.62,132.06 138.63,131.99 139.26,132.68L152.74,146.16C152.944,146.429 153.212,146.642 153.52,146.78C154.185,146.19 154.773,145.518 155.27,144.78C155.33,144.34 154.95,144.16 154.71,143.92L142.71,131.92C142.1,131.31 141.49,130.69 140.87,130.1C140.705,129.986 140.605,129.798 140.605,129.597C140.605,129.438 140.668,129.284 140.78,129.17C141.14,128.69 141.44,128.17 141.78,127.69L141.84,127.61C141.858,127.576 141.881,127.545 141.91,127.52C144.598,123.415 146.651,118.928 148,114.21C148.33,113.09 148.33,113.09 149.52,113.09L168.65,113.09C169.055,113.165 169.473,113.094 169.83,112.89C170.07,112.046 170.208,111.177 170.24,110.3C169.873,110.063 169.429,109.977 169,110.06L150.2,110.06C149.13,110.06 149.1,110.06 149.27,108.96C149.51,107.55 149.73,106.16 149.83,104.74L149.88,104.74ZM140.32,81.25C140.98,83.05 141.63,84.86 142.32,86.66C142.027,87.044 141.879,87.518 141.9,88C141.75,90.031 141.392,92.042 140.83,94C140.406,95.752 139.693,97.422 138.72,98.94C138.045,99.939 137.021,100.653 135.85,100.94C133.884,101.418 131.873,101.683 129.85,101.73C125.58,101.885 121.306,101.505 117.13,100.6C114.052,100.071 111.087,99.022 108.36,97.5C107.754,97.135 107.169,96.734 106.61,96.3C105.812,95.689 105.06,95.02 104.36,94.3C103.199,93.096 102.191,91.752 101.36,90.3C101.04,89.722 100.75,89.128 100.49,88.52C99.921,87.229 99.466,85.89 99.13,84.52C98.64,82.717 99.476,80.799 101.13,79.93C102.328,79.268 103.642,78.84 105,78.67C108.644,78.164 112.321,77.93 116,77.97C119,77.9 122.09,77.97 125.13,78.08C127.29,78.17 129.43,78.34 131.58,78.48C132.17,78.48 132.79,78.83 133.38,78.48C135.5,79.25 137.62,80.03 139.74,80.78C139.987,80.831 140.19,81.01 140.27,81.25L140.32,81.25ZM58.32,88.88C60.221,87.017 62.499,85.582 65,84.67C68.816,83.189 72.799,82.181 76.86,81.67C79.86,81.23 82.86,80.72 85.86,80.45C87.823,80.193 89.813,80.217 91.77,80.52C93.612,80.714 95.089,82.163 95.32,84C96.69,91.35 94.2,97.33 88.69,102.09C85,105.27 80.4,107 75.6,108C73.711,108.408 71.783,108.606 69.85,108.59C69,108.603 68.151,108.549 67.31,108.43C65.766,108.22 64.346,107.464 63.31,106.3C59.713,102.653 57.435,97.908 56.84,92.82C56.665,91.353 57.201,89.888 58.28,88.88L58.32,88.88ZM90.55,128.42C85.637,126.308 82.058,121.918 80.98,116.68C80.88,116.2 80.89,115.9 81.55,115.86C83.72,115.72 85.88,115.5 88.05,115.32L96.05,114.64L101.98,114.17C104.72,113.95 107.46,113.71 110.2,113.48C112.48,113.3 114.77,113.14 117.06,112.94C117.48,112.94 117.5,113.14 117.48,113.42C117.436,115.673 116.896,117.889 115.9,119.91L105.66,119.91C105.12,119.91 104.72,120.11 104.73,120.66C104.74,121.21 105.15,121.38 105.73,121.38L115.07,121.38C114.692,122.258 114.145,123.053 113.46,123.72C110.401,127.204 106.163,129.441 101.56,130C97.802,130.585 93.953,130.035 90.51,128.42L90.55,128.42ZM169.55,85.42C169.35,85.245 169.082,85.167 168.82,85.21L156.82,85.21C156.907,85.182 156.991,85.145 157.07,85.1C158.94,84.1 160.82,83.1 162.69,82.1C164.21,81.28 165.75,80.51 167.23,79.65C167.5,79.48 167.88,79.38 167.85,78.94C167.659,78.165 167.408,77.406 167.1,76.67C166.79,76.45 166.55,76.67 166.31,76.8C161.17,79.59 156.01,82.34 150.87,85.09C150.64,85.22 150.38,85.29 150.28,85.58C150.21,86.24 150.6,86.81 150.67,87.43C150.74,88.05 150.96,88.05 151.42,88.04L170,88.04C169.963,87.14 169.809,86.249 169.54,85.39L169.55,85.42ZM135.67,160.64L127.28,152.25C125.9,150.86 125.91,150.88 124.28,151.91C124.083,151.999 123.956,152.196 123.956,152.412C123.956,152.502 123.978,152.59 124.02,152.67C125.32,156.92 126.6,161.18 127.89,165.42C128.678,165.147 129.444,164.813 130.18,164.42C130.4,164.16 130.3,163.88 130.18,163.61L129.73,162.17C129.22,160.45 128.73,158.73 128.18,157.04C129.83,158.68 131.49,160.35 133.18,162.04C133.41,162.28 133.62,162.65 134.07,162.48C134.783,162.073 135.493,161.673 136.2,161.28C136.076,161.017 135.891,160.787 135.66,160.61L135.67,160.64ZM123.59,166C121.8,162.64 120.02,159.28 118.19,155.94C117.44,154.55 117.83,154.76 116.31,155.12C115.19,155.4 115.19,155.4 115.13,156.44L115.13,169.39C116.004,169.279 116.865,169.081 117.7,168.8C117.895,168.579 118.002,168.294 118,168L118,161.16C118.04,161.396 118.128,161.62 118.26,161.82C119.17,163.48 120.01,165.17 120.95,166.82C121.14,167.14 121.23,167.54 121.59,167.76C122.42,167.583 123.233,167.336 124.02,167.02C124,166.6 123.75,166.33 123.59,166ZM84.77,157.31C84.77,155.9 84.77,155.9 83.37,155.54C83.16,155.495 82.953,155.438 82.75,155.37C82.4,155.2 82.24,155.37 82.07,155.64C81.859,156.116 81.615,156.577 81.34,157.02C81.296,157.041 81.256,157.068 81.22,157.1C81.15,157.167 81.095,157.249 81.06,157.34C79.4,160.27 77.88,163.27 76.25,166.23C76.14,166.44 75.95,166.68 76.15,166.95C76.846,167.251 77.565,167.495 78.3,167.68L78.38,167.68C78.75,167.74 78.88,167.43 79.03,167.17C79.67,166.08 80.26,164.95 80.85,163.83C81.292,163.157 81.677,162.448 82,161.71L82,168.33C81.992,168.523 82.064,168.712 82.2,168.85C83.034,169.129 83.896,169.321 84.77,169.42C84.763,165.4 84.763,161.377 84.77,157.35L84.77,157.31ZM76.6,152.04C76.27,151.83 75.93,151.66 75.6,151.44C75.461,151.325 75.286,151.263 75.105,151.263C74.853,151.263 74.616,151.385 74.47,151.59C73.79,152.28 73.15,153 72.47,153.59L72.39,153.67C72.103,153.886 71.835,154.127 71.59,154.39C69.75,156.22 68.05,158.17 66.18,159.94C65.79,160.31 65.43,160.68 65.07,161.07C64.9,161.25 64.63,161.42 64.84,161.73C65.57,162.197 66.34,162.598 67.14,162.93C67.405,162.819 67.636,162.639 67.81,162.41C69.28,160.95 70.73,159.48 72.19,158.03C72.35,157.87 72.47,157.65 72.73,157.61C72.8,157.77 72.73,157.9 72.73,158.03C72.17,160.03 71.56,161.94 70.97,163.88C70.88,164.17 70.69,164.47 70.97,164.77C71.703,165.175 72.474,165.51 73.27,165.77C73.6,165.66 73.64,165.35 73.72,165.08C74.35,163.08 74.95,161.08 75.53,159.08C75.78,158.415 75.905,157.71 75.9,157C75.895,156.29 75.9,156.95 75.9,156.93C76.22,155.86 76.53,154.81 76.9,153.75L76.99,153.62C77.45,152.87 77.37,152.54 76.6,152.08L76.6,152.04ZM51.09,127.22C50.969,126.916 50.674,126.716 50.347,126.716C50.223,126.716 50.101,126.745 49.99,126.8C48.15,127.4 46.3,127.95 44.45,128.5C41.64,129.35 38.82,130.18 36,131.02C36.309,131.819 36.694,132.586 37.15,133.31C37.5,133.58 37.83,133.38 38.15,133.31C40.75,132.5 43.37,131.73 45.95,130.96C43.89,132.96 41.82,135.07 39.77,137.14C39.658,137.237 39.587,137.373 39.57,137.52C39.96,138.265 40.404,138.981 40.9,139.66C41.33,139.9 41.49,139.49 41.7,139.28C43.2,137.81 44.7,136.28 46.16,134.83C46.35,134.65 46.57,134.5 46.61,134.22C47.99,132.82 49.36,131.41 50.74,130.02C52,128.73 52,128.74 51.09,127.22ZM37.63,79.61C37.63,79.61 37.61,79.57 37.63,79.61ZM53.78,78.52L48.42,73.16L48.35,73.1C47.2,71.97 46.06,70.82 44.92,69.67L44.82,69.57C43,67.79 41.28,66 39.49,64.25C39.28,64.05 39.12,63.73 38.74,63.79C38.34,64.5 37.95,65.22 37.55,65.92C37.39,66.43 37.82,66.66 38.09,66.92L48.14,77C43.71,75.66 39.28,74.3 34.83,73C34.61,72.93 34.37,72.82 34.16,73C33.774,73.771 33.475,74.583 33.27,75.42C33.488,75.608 33.755,75.729 34.04,75.77L45.25,79.17L45.39,79.17C45.55,79.227 45.714,79.274 45.88,79.31L46.05,79.31L51.5,80.95C53.1,81.42 53.1,81.4 53.96,79.95C54.46,79.23 54.46,79.2 53.78,78.52ZM84.78,30.52C83.906,30.631 83.045,30.829 82.21,31.11C82.001,31.451 81.926,31.857 82,32.25L82,45.67C81.28,44.29 80.55,42.95 79.83,41.6C78.43,39.03 77.07,36.44 75.67,33.88C75.54,33.65 75.46,33.32 75.1,33.39L75,33.39C74.257,33.611 73.535,33.896 72.84,34.24C72.867,34.507 72.972,34.761 73.14,34.97C75.94,40.21 78.747,45.447 81.56,50.68C82.56,52.52 82.02,52.17 84.03,51.77C84.65,51.64 84.8,51.36 84.8,50.77C84.77,44 84.78,37.29 84.78,30.55L84.78,30.52ZM138.2,40C137.7,39.81 137.5,40.22 137.25,40.48C134.25,43.48 131.3,46.42 128.31,49.4C128.125,49.611 127.924,49.809 127.71,49.99C129.01,45.67 130.31,41.41 131.58,37.15C131.67,36.85 131.8,36.55 131.58,36.26C130.89,35.865 130.168,35.53 129.42,35.26C129.03,35.26 129.02,35.6 128.94,35.85C128.16,38.32 127.44,40.85 126.68,43.28C126.552,43.561 126.507,43.874 126.55,44.18C126.55,44.37 126.47,44.55 126.42,44.74L123.9,53.18C123.41,54.85 123.44,54.83 124.9,55.77C125.033,55.895 125.209,55.964 125.392,55.964C125.626,55.964 125.845,55.851 125.98,55.66C130.573,51.033 135.173,46.423 139.78,41.83C139.93,41.67 140.06,41.5 140.2,41.34L138.2,40ZM126,33.83C125.263,33.468 124.493,33.18 123.7,32.97C123.31,32.97 123.2,33.29 123.06,33.54C122.71,34.14 122.42,34.77 122.06,35.39C120.47,38.31 118.91,41.25 117.34,44.2C117.206,44.383 117.12,44.596 117.09,44.82L117.09,31.71C117.124,31.447 117.052,31.18 116.89,30.97C116.106,30.68 115.29,30.482 114.46,30.38C113.87,30.62 114.07,31.15 114.07,31.55C114.07,35.76 114.07,39.96 114.12,44.16L114.12,46.13C114.11,46.183 114.11,46.237 114.12,46.29L114.12,49.95C114.12,50.2 114.03,50.48 114.27,50.69C114.74,50.8 115.21,50.88 115.66,51.03C116.32,51.27 116.83,51.3 117.08,50.47C117.219,50.116 117.4,49.78 117.62,49.47L120.62,44.06C120.664,44.036 120.704,44.005 120.74,43.97C120.845,43.88 120.927,43.767 120.98,43.64C122.61,40.56 124.29,37.52 125.9,34.43C126,34.23 126.13,34.05 126,33.83Z" transform="translate(-40.636 -40.645)scale(1.40632)"/></svg>