<svg xmlns="http://www.w3.org/2000/svg" fill="rgba(255, 255, 255, 0.9)" viewBox="0 0 200 200"><path d="M163,81.32L154.18,76.44C152.41,75.44 150.64,74.44 148.86,73.51C148.487,73.361 148.258,72.979 148.3,72.58L148.3,56.67C148.32,56.517 148.233,56.368 148.09,56.31L147.33,55.89L115.85,38.45C115.659,38.382 115.487,38.269 115.35,38.12L114.85,38.12C114.94,38.12 114.96,38.2 114.85,38.25C114.712,38.348 114.568,38.438 114.42,38.52C111.34,40.22 108.25,41.94 105.16,43.63C104.837,43.767 104.638,44.1 104.67,44.45L104.67,92.3C104.629,92.649 104.826,92.985 105.15,93.12C106.73,93.96 108.28,94.85 109.85,95.71C109.99,95.79 110.12,95.93 110.35,95.88L110.35,58.88C110.61,58.82 110.76,58.98 110.93,59.07L120.86,64.57L129.41,69.31C130.71,70.03 132.02,70.73 133.31,71.46C133.522,71.599 133.798,71.599 134.01,71.46C134.83,70.99 135.66,70.54 136.49,70.1C136.714,70.015 136.855,69.788 136.83,69.55L136.83,67.47C136.876,67.152 136.698,66.841 136.4,66.72C133.01,64.86 129.63,62.98 126.25,61.11C121.11,58.263 115.967,55.42 110.82,52.58C110.506,52.456 110.313,52.135 110.35,51.8L110.35,47.65C110.328,47.381 110.482,47.126 110.73,47.02C112.04,46.31 113.34,45.6 114.63,44.86C114.908,44.675 115.272,44.675 115.55,44.86C119.94,47.32 124.34,49.75 128.75,52.19C133.16,54.63 137.57,57.09 142,59.52C142.336,59.666 142.539,60.016 142.5,60.38L142.5,72.8C142.539,73.133 142.35,73.453 142.04,73.58L129.75,80.35C129.494,80.511 129.166,80.511 128.91,80.35C126.768,79.263 124.154,79.667 122.44,81.35C121.372,82.402 120.769,83.84 120.769,85.34C120.769,87.961 122.61,90.249 125.17,90.81C125.589,90.908 126.018,90.958 126.449,90.958C129.353,90.958 131.801,88.704 132.04,85.81C132.046,85.558 132.199,85.331 132.43,85.23L145.03,78.23C145.237,78.085 145.513,78.085 145.72,78.23L157.33,84.66C157.57,84.773 157.715,85.026 157.69,85.29L157.69,114.64C157.712,114.909 157.558,115.164 157.31,115.27C153.45,117.403 149.597,119.54 145.75,121.68C145.498,121.844 145.172,121.844 144.92,121.68L115.82,105.53L96,94.5C95.872,94.417 95.739,94.343 95.6,94.28C95.441,94.215 95.343,94.051 95.36,93.88L95.36,44.77C95.345,44.617 95.345,44.463 95.36,44.31C95.36,43.95 95.24,43.78 94.94,43.61C91.81,41.89 88.7,40.16 85.58,38.43C85.43,38.34 85.24,38.29 85.13,38.12L84.63,38.12C84.72,38.12 84.73,38.2 84.63,38.25C84.507,38.342 84.377,38.422 84.24,38.49L52.59,56C51.75,56.47 51.89,56.2 51.89,57.2L51.89,72.55C51.924,72.916 51.718,73.265 51.38,73.41C46.62,76.03 41.863,78.66 37.11,81.3C36.958,81.403 36.789,81.478 36.61,81.52L36.61,118.32C36.787,118.372 36.955,118.449 37.11,118.55C41.883,121.217 46.657,123.857 51.43,126.47C51.737,126.606 51.923,126.926 51.89,127.26L51.89,142.92C51.851,143.284 52.054,143.634 52.39,143.78C63.057,149.68 73.723,155.59 84.39,161.51C84.542,161.587 84.689,161.674 84.83,161.77C84.89,161.77 84.9,161.87 84.83,161.91L85.13,161.91C85.07,161.68 85.29,161.68 85.4,161.62C86.91,160.77 88.4,159.93 89.96,159.09C91.52,158.25 93.26,157.24 94.96,156.35C95.28,156.211 95.472,155.876 95.43,155.53L95.43,107.38C95.458,107.162 95.346,106.949 95.15,106.85C93.37,106 91.67,105 90,104.07C89.913,104.02 89.807,104.02 89.72,104.07L89.72,141.21C89.48,141.27 89.36,141.13 89.22,141.06L67.91,129.24C67.5,129.01 67.08,128.79 66.67,128.55C66.5,128.441 66.28,128.441 66.11,128.55C65.25,129.04 64.37,129.55 63.49,129.99C63.307,130.076 63.195,130.268 63.21,130.47L63.21,132.6C63.173,132.901 63.341,133.192 63.62,133.31C65.62,134.4 67.62,135.51 69.62,136.62L89.2,147.44C89.525,147.579 89.722,147.918 89.68,148.27L89.68,152.37C89.715,152.655 89.555,152.93 89.29,153.04C87.99,153.74 86.7,154.45 85.43,155.18C85.154,155.371 84.786,155.371 84.51,155.18C76.717,150.847 68.92,146.513 61.12,142.18C60.12,141.61 59.06,141.02 58.01,140.47C57.715,140.349 57.532,140.048 57.56,139.73L57.56,127.16C57.534,126.859 57.703,126.572 57.98,126.45C61.86,124.33 65.737,122.2 69.61,120.06C69.921,119.841 70.257,119.66 70.61,119.52C71,119.43 71.32,119.77 71.68,119.9C72.293,120.119 72.94,120.231 73.591,120.231C76.575,120.231 79.077,117.879 79.26,114.9C79.263,114.823 79.265,114.746 79.265,114.669C79.265,111.559 76.705,108.999 73.595,108.999C70.995,108.999 68.713,110.786 68.09,113.31C68.025,113.572 67.985,113.84 67.97,114.11C67.969,114.364 67.809,114.592 67.57,114.68L63.67,116.83C60.81,118.41 57.96,119.97 55.11,121.56C54.832,121.745 54.468,121.745 54.19,121.56C50.39,119.433 46.58,117.32 42.76,115.22C42.485,115.101 42.315,114.819 42.34,114.52L42.34,85.22C42.311,84.937 42.469,84.665 42.73,84.55C46.577,82.43 50.417,80.303 54.25,78.17C54.515,77.989 54.865,77.989 55.13,78.17C71.503,87.263 87.88,96.343 104.26,105.41C104.598,105.554 104.802,105.905 104.76,106.27L104.76,155.33C104.76,156.15 104.65,155.93 105.36,156.33L114.58,161.44C114.729,161.517 114.873,161.604 115.01,161.7C115.07,161.7 115.08,161.81 115.01,161.84L115.31,161.84C115.31,161.58 115.51,161.6 115.63,161.53C117.06,160.72 118.49,159.93 119.92,159.14C129.2,153.987 138.487,148.843 147.78,143.71C148.116,143.564 148.319,143.214 148.28,142.85L148.28,127.25C148.239,126.901 148.436,126.565 148.76,126.43L162.9,118.62C163.05,118.53 163.18,118.33 163.4,118.45L163.4,81.45C163.19,81.58 163.08,81.39 163,81.32ZM89.64,90.86L60.79,75C60.7,74.963 60.626,74.896 60.58,74.81L89.64,58.69L89.64,90.86ZM89.64,51.75C89.675,52.064 89.494,52.365 89.2,52.48L68.76,63.81L58.17,69.67L57.65,69.94C57.574,69.764 57.546,69.57 57.57,69.38L57.57,60.21C57.537,59.894 57.711,59.591 58,59.46C66.847,54.56 75.693,49.657 84.54,44.75C84.802,44.571 85.148,44.571 85.41,44.75C86.69,45.47 87.97,46.18 89.27,46.88C89.552,46.991 89.725,47.279 89.69,47.58C89.66,49 89.66,50.36 89.68,51.75L89.64,51.75ZM110.45,109.08L110.81,109.25L139.42,125.12C139.11,125.42 110.86,141.07 110.36,141.22L110.45,109.08ZM142.13,140.49C133.27,145.377 124.423,150.277 115.59,155.19C115.325,155.371 114.975,155.371 114.71,155.19C113.417,154.45 112.117,153.73 110.81,153.03C110.543,152.927 110.377,152.655 110.41,152.37L110.41,148.16C110.386,147.874 110.553,147.605 110.82,147.5L142.07,130.21C142.206,130.101 142.376,130.041 142.55,130.04L142.55,139.74C142.591,140.044 142.44,140.344 142.17,140.49L142.13,140.49Z" transform="translate(-57.736 -57.742)scale(1.57733)"/></svg>