<svg version="1.2" xmlns="http://www.w3.org/2000/svg" viewBox="0 0 2500 2500" width="500" height="500"><style>.a{fill:#fff}</style><path class="a" d="m1259.5 2500c-690.9 4.7-1254.7-551.2-1259.5-1240.5-4.7-690.9 551.2-1254.7 1240.5-1259.5 690.9-4.7 1254.7 549.6 1259.5 1240.5v9.5c1.6 687.7-552.7 1246.8-1240.5 1250zm0-2314.1c-587.6-3.2-1067.3 468.5-1070.5 1057.7-3.2 587.7 468.5 1067.3 1057.8 1070.5 587.7 3.2 1067.3-468.5 1070.5-1056.2v-7.9c0-586.1-471.7-1061-1057.8-1064.1zm44.5 892.6l239.8-293.8c25.4-30.2 20.7-76.2-9.5-101.7-12.7-9.5-28.6-15.9-44.5-15.9-20.7 0-41.3 9.5-54 25.4l-222.4 271.6-224-271.6c-12.7-15.9-33.3-25.4-54-25.4h-184.1c-39.7 0-71.5 33.4-71.5 73.1 0 15.9 6.3 31.8 15.9 44.5l332 405-422.5 517.8c-25.4 30.2-23.8 74.7 6.3 100.1 30.2 25.4 74.7 23.8 100.1-6.3l1.6-1.6 406.6-497.1zm555.9-411.4c-20.6 0-41.3 9.5-54 25.4l-405 497.1-184.2 225.5-239.9 293.9c-25.4 30.2-22.2 74.7 7.9 100.1 30.2 25.4 74.7 22.2 100.1-7.9l222.4-271.6 222.4 271.6c12.7 15.9 33.3 25.4 54 25.4h184.2c39.7 0 71.5-31.8 71.5-71.5 0-17.5-6.3-33.3-17.5-46.1l-330.4-405 422.5-517.8c25.4-31.8 19.1-76.2-11.1-101.7-11.1-11-27-15.8-42.9-17.4z"/></svg>